<?xml version="1.0" standalone="no"?>
<!DOCTYPE svg PUBLIC "-//W3C//DTD SVG 20010904//EN"
 "http://www.w3.org/TR/2001/REC-SVG-20010904/DTD/svg10.dtd">
<svg version="1.0" xmlns="http://www.w3.org/2000/svg"
 width="417.000000pt" height="417.000000pt" viewBox="0 0 417.000000 417.000000"
 preserveAspectRatio="xMidYMid meet">
<metadata>
Created by potrace 1.16, written by Peter Selinger 2001-2019
</metadata>
<g transform="translate(0.000000,417.000000) scale(0.100000,-0.100000)"
fill="#000000" stroke="none">
<path d="M1020 3976 c0 -6 14 -69 32 -141 l33 -130 222 -225 223 -225 0 131 0
130 -193 203 c-155 163 -204 209 -255 236 -34 18 -62 28 -62 21z"/>
<path d="M874 3583 c4 -10 37 -91 74 -181 l67 -163 186 -140 c102 -76 189
-139 192 -139 7 0 -4 229 -12 251 -3 9 -79 80 -169 158 -129 112 -182 151
-254 187 -71 36 -89 42 -84 27z"/>
<path d="M1610 3305 l0 -127 151 -154 152 -153 26 19 c14 10 49 39 76 64 l50
44 -196 191 c-108 104 -210 202 -228 216 l-31 27 0 -127z"/>
<path d="M801 3168 c0 -7 31 -60 67 -118 l67 -105 203 -153 c112 -84 205 -152
207 -150 8 9 -40 236 -53 251 -8 9 -90 73 -181 141 -163 122 -167 124 -231
131 -36 4 -68 9 -72 12 -5 2 -8 -2 -7 -9z"/>
<path d="M1464 3079 c15 -189 4 -167 140 -283 90 -78 124 -101 134 -93 7 5 35
36 62 67 l49 57 -181 159 c-100 87 -188 163 -196 168 -13 7 -14 -3 -8 -75z"/>
<path d="M830 2813 c0 -5 12 -28 25 -52 14 -24 47 -85 73 -134 l47 -90 179
-143 c99 -79 182 -142 184 -140 1 2 -11 60 -29 130 l-32 127 -143 127 c-126
111 -153 130 -216 154 -80 30 -88 31 -88 21z"/>
<path d="M1400 2817 c0 -2 4 -26 9 -53 5 -27 13 -76 16 -109 4 -33 10 -67 14
-77 6 -17 228 -168 246 -168 7 0 12 40 13 103 l3 102 -122 85 c-151 105 -179
123 -179 117z"/>
<path d="M1364 2463 c3 -10 17 -65 31 -123 l26 -105 118 -77 c64 -43 120 -78
124 -78 4 0 7 49 7 108 l0 108 -149 92 c-82 51 -152 92 -155 92 -4 0 -5 -8 -2
-17z"/>
<path d="M799 2332 c25 -47 144 -238 154 -248 7 -6 57 -35 112 -64 55 -30 140
-75 189 -102 50 -27 93 -47 96 -46 4 2 -9 61 -30 132 l-36 129 -154 108 -154
109 -93 0 c-88 0 -93 -1 -84 -18z"/>
<path d="M1410 2028 c5 -18 18 -74 30 -125 15 -63 27 -93 39 -96 9 -3 51 -21
94 -41 l78 -36 -3 116 -3 116 -113 49 c-62 27 -117 49 -121 49 -5 0 -5 -15 -1
-32z"/>
<path d="M878 1934 c-4 -3 25 -54 64 -114 78 -122 61 -108 310 -239 l138 -73
-26 69 c-14 37 -36 95 -48 128 l-23 60 -174 87 c-156 78 -223 101 -241 82z"/>
<path d="M1415 1682 c3 -9 22 -61 43 -116 l37 -98 68 -31 c37 -16 69 -28 71
-26 2 2 6 44 7 93 l3 88 -117 54 c-89 40 -117 49 -112 36z"/>
<path d="M946 1549 c6 -8 45 -59 87 -115 42 -55 89 -106 104 -113 99 -45 286
-122 289 -118 2 2 -14 56 -36 119 l-41 114 -117 56 c-105 49 -127 56 -207 63
-74 6 -88 5 -79 -6z"/>
<path d="M1186 1171 l-49 -6 75 -101 75 -100 118 -42 c65 -23 119 -41 120 -39
1 1 15 37 32 79 l31 76 -147 67 c-155 71 -177 76 -255 66z"/>
<path d="M1296 777 c21 -34 41 -51 92 -76 35 -18 66 -31 67 -29 2 2 12 27 23
56 l21 54 -37 16 c-20 9 -72 18 -115 20 l-78 4 27 -45z"/>
<path d="M2645 759 l-90 -28 -69 -86 c-38 -47 -67 -87 -65 -89 2 -2 76 8 164
23 l160 26 89 93 89 92 -94 -1 c-74 -1 -113 -7 -184 -30z"/>
<path d="M2350 726 c-76 -10 -96 -18 -187 -71 -57 -33 -103 -62 -103 -66 0 -3
44 -9 98 -13 53 -4 113 -9 132 -12 34 -5 37 -3 93 72 61 80 75 105 61 103 -5
-1 -47 -7 -94 -13z"/>
<path d="M2592 510 c-45 -4 -85 -9 -87 -12 -5 -5 141 -103 175 -117 35 -14
320 -74 326 -68 3 3 -46 50 -109 106 l-115 101 -53 -1 c-30 -1 -91 -5 -137 -9z"/>
</g>
</svg>
